<?xml version="1.0" encoding="UTF-8"?>
<svg width="48px" height="53px" viewBox="0 0 48 53" version="1.1" xmlns="http://www.w3.org/2000/svg" xmlns:xlink="http://www.w3.org/1999/xlink">
    <!-- Generator: Sketch 64 (93537) - https://sketch.com -->
    <title>Backward</title>
    <desc>Created with Sketch.</desc>
    <g id="Version-3.1-Documentation" stroke="none" stroke-width="1" fill="none" fill-rule="evenodd" fill-opacity="0.8">
        <g id="Player-Components" transform="translate(-75.000000, -722.000000)" fill="#F9F9F9" fill-rule="nonzero">
            <path d="M98.90625,774.357085 C111.984375,774.357085 122.8125,763.52896 122.8125,750.450835 C122.8125,738.919585 114.398438,729.146147 103.429688,726.989897 L103.429688,723.661772 C103.429688,721.99771 102.28125,721.552397 101.015625,722.46646 L93.5390625,727.693022 C92.4609375,728.443022 92.4375,729.568022 93.5390625,730.34146 L100.992188,735.59146 C102.28125,736.52896 103.429688,736.083647 103.429688,734.396147 L103.429688,731.044585 C112.289062,733.06021 118.804688,740.958647 118.804688,750.450835 C118.804688,761.513335 109.96875,770.37271 98.90625,770.37271 C87.84375,770.37271 78.9609375,761.513335 78.984375,750.450835 C79.0078125,743.794585 82.2421875,737.911772 87.234375,734.349272 C88.1953125,733.62271 88.5,732.521147 87.9140625,731.536772 C87.328125,730.575835 86.0390625,730.318022 85.0078125,731.114897 C78.984375,735.49771 75,742.575835 75,750.450835 C75,763.52896 85.8515625,774.357085 98.90625,774.357085 Z M104.578125,760.318022 C108.445312,760.318022 111,756.638335 111,751.013335 C111,745.34146 108.445312,741.614897 104.578125,741.614897 C100.6875,741.614897 98.1328125,745.34146 98.1328125,751.013335 C98.1328125,756.638335 100.6875,760.318022 104.578125,760.318022 Z M92.34375,760.036772 C93.2578125,760.036772 93.8671875,759.40396 93.8671875,758.419585 L93.8671875,743.677397 C93.8671875,742.52896 93.234375,741.802397 92.1796875,741.802397 C91.546875,741.802397 91.1015625,742.013335 90.2578125,742.575835 L87,744.755522 C86.484375,745.130522 86.2265625,745.552397 86.2265625,746.114897 C86.2265625,746.888335 86.859375,747.544585 87.609375,747.544585 C88.03125,747.544585 88.265625,747.450835 88.734375,747.12271 L90.9140625,745.52896 L90.9140625,758.419585 C90.9140625,759.380522 91.4765625,760.036772 92.34375,760.036772 Z M104.578125,757.482085 C102.492188,757.482085 101.179688,755.021147 101.179688,751.013335 C101.179688,746.93521 102.46875,744.450835 104.578125,744.450835 C106.664062,744.450835 107.929688,746.911772 107.929688,751.013335 C107.929688,755.021147 106.640625,757.482085 104.578125,757.482085 Z" id="Backward"></path>
        </g>
    </g>
</svg>