<?xml version="1.0" encoding="UTF-8"?>
<svg width="11px" height="11px" viewBox="0 0 11 11" version="1.1" xmlns="http://www.w3.org/2000/svg" xmlns:xlink="http://www.w3.org/1999/xlink">
    <!-- Generator: Sketch 64 (93537) - https://sketch.com -->
    <title>Close</title>
    <desc>Created with Sketch.</desc>
    <g id="Version-3.1-Documentation" stroke="none" stroke-width="1" fill="none" fill-rule="evenodd">
        <g id="Player-Components" transform="translate(-821.000000, -929.000000)" fill="#8C8C8C" fill-rule="nonzero">
            <path d="M831.124512,939.126898 C831.448242,938.79682 831.448242,938.257269 831.130859,937.939886 L827.379395,934.188421 L831.130859,930.430609 C831.448242,930.113226 831.45459,929.567328 831.124512,929.243597 C830.800781,928.919867 830.254883,928.919867 829.9375,929.23725 L826.186035,932.988714 L822.428223,929.23725 C822.123535,928.926214 821.564941,928.913519 821.241211,929.243597 C820.91748,929.567328 820.923828,930.125921 821.234863,930.430609 L824.986328,934.188421 L821.234863,937.939886 C820.923828,938.250921 820.91748,938.803168 821.241211,939.126898 C821.571289,939.450628 822.123535,939.444281 822.428223,939.139593 L826.186035,935.381781 L829.9375,939.133246 C830.254883,939.450628 830.800781,939.450628 831.124512,939.126898 Z" id="Close"></path>
        </g>
    </g>
</svg>