<?xml version="1.0" encoding="UTF-8"?>
<svg width="25px" height="20px" viewBox="0 0 25 20" version="1.1" xmlns="http://www.w3.org/2000/svg" xmlns:xlink="http://www.w3.org/1999/xlink">
    <!-- Generator: Sketch 64 (93537) - https://sketch.com -->
    <title>Floting Player</title>
    <desc>Created with Sketch.</desc>
    <g id="Version-3.1-Documentation" stroke="none" stroke-width="1" fill="none" fill-rule="evenodd">
        <g id="Player-Components" transform="translate(-496.000000, -859.000000)" fill="#F9F9F9" fill-rule="nonzero">
            <path d="M517.294758,859.17334 C519.448078,859.17334 520.514485,860.239746 520.514485,862.352051 L520.514485,862.352051 L520.514485,874.87207 C520.514485,876.984375 519.448078,878.050781 517.294758,878.050781 L517.294758,878.050781 L499.5555,878.050781 C497.412434,878.050781 496.335774,876.994629 496.335774,874.87207 L496.335774,874.87207 L496.335774,862.352051 C496.335774,860.229492 497.412434,859.17334 499.5555,859.17334 L499.5555,859.17334 Z M517.27425,860.824219 L499.576008,860.824219 C498.550617,860.824219 497.986653,861.367676 497.986653,862.434082 L497.986653,862.434082 L497.986653,874.790039 C497.986653,875.856445 498.550617,876.399902 499.576008,876.399902 L499.576008,876.399902 L510.078232,876.399706 C509.920987,876.201059 509.8422,875.924704 509.8422,875.570312 L509.8422,875.570312 L509.8422,870.800781 C509.8422,869.992188 510.252356,869.589844 511.068762,869.589844 L511.068762,869.589844 L517.826575,869.589844 C518.324459,869.589844 518.66981,869.739499 518.864375,870.037062 L518.863606,862.434082 C518.863606,861.367676 518.289387,860.824219 517.27425,860.824219 L517.27425,860.824219 Z" id="Floting-Player"></path>
        </g>
    </g>
</svg>