<?xml version="1.0" encoding="UTF-8"?>
<svg width="49px" height="53px" viewBox="0 0 49 53" version="1.1" xmlns="http://www.w3.org/2000/svg" xmlns:xlink="http://www.w3.org/1999/xlink">
    <!-- Generator: Sketch 64 (93537) - https://sketch.com -->
    <title>Forward</title>
    <desc>Created with Sketch.</desc>
    <g id="Version-3.1-Documentation" stroke="none" stroke-width="1" fill="none" fill-rule="evenodd" fill-opacity="0.8">
        <g id="Player-Components" transform="translate(-518.000000, -722.000000)" fill="#F9F9F9" fill-rule="nonzero">
            <path d="M542.765625,774.349507 C555.84375,774.349507 566.671875,763.521382 566.671875,750.443257 C566.671875,742.568257 562.6875,735.490132 556.664062,731.107319 C555.632812,730.310444 554.34375,730.568257 553.757812,731.529194 C553.171875,732.513569 553.476562,733.615132 554.4375,734.341694 C559.429688,737.904194 562.664062,743.787007 562.6875,750.443257 C562.710938,761.505757 553.828125,770.365132 542.765625,770.365132 C531.703125,770.365132 522.867188,761.505757 522.867188,750.443257 C522.867188,740.951069 529.382812,733.052632 538.242188,731.037007 L538.242188,734.412007 C538.242188,736.076069 539.390625,736.521382 540.679688,735.607319 L548.15625,730.357319 C549.210938,729.630757 549.234375,728.505757 548.15625,727.732319 L540.703125,722.482319 C539.390625,721.544819 538.242188,721.990132 538.242188,723.677632 L538.242188,726.982319 C527.273438,729.115132 518.859375,738.912007 518.859375,750.443257 C518.859375,763.521382 529.710938,774.349507 542.765625,774.349507 Z M548.4375,760.310444 C552.328125,760.310444 554.882812,756.630757 554.882812,751.005757 C554.882812,745.333882 552.328125,741.607319 548.4375,741.607319 C544.546875,741.607319 541.992188,745.333882 541.992188,751.005757 C541.992188,756.630757 544.546875,760.310444 548.4375,760.310444 Z M536.226562,760.029194 C537.140625,760.029194 537.726562,759.396382 537.726562,758.412007 L537.726562,743.669819 C537.726562,742.521382 537.117188,741.794819 536.0625,741.794819 C535.429688,741.794819 534.984375,742.005757 534.117188,742.568257 L530.882812,744.747944 C530.367188,745.122944 530.109375,745.544819 530.109375,746.107319 C530.109375,746.880757 530.71875,747.537007 531.46875,747.537007 C531.914062,747.537007 532.125,747.443257 532.59375,747.115132 L534.773438,745.521382 L534.773438,758.412007 C534.773438,759.372944 535.335938,760.029194 536.226562,760.029194 Z M548.4375,757.474507 C546.375,757.474507 545.039062,755.013569 545.039062,751.005757 C545.039062,746.927632 546.351562,744.443257 548.4375,744.443257 C550.523438,744.443257 551.8125,746.904194 551.8125,751.005757 C551.8125,755.013569 550.5,757.474507 548.4375,757.474507 Z" id="Forward"></path>
        </g>
    </g>
</svg>