<?xml version="1.0" encoding="UTF-8"?>
<svg width="21px" height="21px" viewBox="0 0 21 21" version="1.1" xmlns="http://www.w3.org/2000/svg" xmlns:xlink="http://www.w3.org/1999/xlink">
    <!-- Generator: Sketch 64 (93537) - https://sketch.com -->
    <title>FullScreen</title>
    <desc>Created with Sketch.</desc>
    <g id="Version-3.1-Documentation" stroke="none" stroke-width="1" fill="none" fill-rule="evenodd">
        <g id="Player-Components" transform="translate(-605.000000, -858.000000)" fill="#F9F9F9" fill-rule="nonzero">
            <path d="M614.142903,868.001953 C614.727375,868.001953 615.158039,867.622559 615.158039,867.04834 C615.158039,866.771484 615.065754,866.525391 614.881184,866.34082 L611.712727,863.182617 L608.872395,860.48584 L612.461262,860.690918 L613.312336,860.690918 C613.855793,860.690918 614.276203,860.311523 614.276203,859.757812 C614.276203,859.204102 613.866047,858.814453 613.312336,858.814453 L607.621418,858.814453 C606.57552,858.814453 605.970539,859.419434 605.970539,860.465332 L605.970539,866.15625 C605.970539,866.689453 606.370442,867.109863 606.913899,867.109863 C607.457356,867.109863 607.847004,866.699707 607.847004,866.15625 L607.847004,865.294922 L607.641926,861.716309 L610.338703,864.556641 L613.496907,867.735352 C613.671223,867.919922 613.896809,868.001953 614.142903,868.001953 Z M623.853352,878.378906 C624.89925,878.378906 625.514485,877.773926 625.514485,876.728027 L625.514485,871.037109 C625.514485,870.503906 625.114582,870.083496 624.560871,870.083496 C624.027668,870.083496 623.627766,870.493652 623.627766,871.037109 L623.627766,871.898438 L623.843098,875.477051 L621.136067,872.636719 L617.988117,869.458008 C617.813801,869.273438 617.577961,869.191406 617.331867,869.191406 C616.757649,869.191406 616.316731,869.570801 616.316731,870.14502 C616.316731,870.421875 616.41927,870.667969 616.60384,870.852539 L619.762043,874.010742 L622.612629,876.70752 L619.023762,876.502441 L618.162434,876.502441 C617.618977,876.502441 617.198567,876.881836 617.198567,877.435547 C617.198567,877.989258 617.618977,878.378906 618.162434,878.378906 L623.853352,878.378906 Z" id="FullScreen"></path>
        </g>
    </g>
</svg>