<?xml version="1.0" encoding="UTF-8"?>
<svg width="21px" height="21px" viewBox="0 0 21 21" version="1.1" xmlns="http://www.w3.org/2000/svg" xmlns:xlink="http://www.w3.org/1999/xlink">
    <!-- Generator: Sketch 64 (93537) - https://sketch.com -->
    <title>FullScreen-Exit</title>
    <desc>Created with Sketch.</desc>
    <g id="Version-3.1-Documentation" stroke="none" stroke-width="1" fill="none" fill-rule="evenodd">
        <g id="Player-Components" transform="translate(-711.000000, -858.000000)" fill="#F9F9F9" fill-rule="nonzero">
            <path d="M719.066242,867.612305 C720.112141,867.612305 720.717121,866.99707 720.717121,865.951172 L720.717121,860.270508 C720.717121,859.737305 720.317219,859.316895 719.773762,859.316895 C719.230305,859.316895 718.840657,859.727051 718.840657,860.270508 L718.840657,861.131836 L719.055989,864.710449 L716.348957,861.870117 L713.201008,858.691406 C713.026692,858.506836 712.790852,858.414551 712.544758,858.414551 C711.960285,858.414551 711.529621,858.804199 711.529621,859.378418 C711.529621,859.64502 711.63216,859.901367 711.816731,860.085938 L714.974934,863.244141 L717.815266,865.940918 L714.236653,865.73584 L713.375325,865.73584 C712.831867,865.73584 712.411457,866.115234 712.411457,866.668945 C712.411457,867.212402 712.821614,867.612305 713.375325,867.612305 L719.066242,867.612305 Z M730.509602,878.881348 C731.083821,878.881348 731.514485,878.491699 731.514485,877.91748 C731.514485,877.650879 731.4222,877.394531 731.237629,877.209961 L728.007649,873.97998 L725.157063,871.283203 L728.74593,871.488281 L729.720051,871.488281 C730.263508,871.488281 730.683918,871.108887 730.683918,870.56543 C730.683918,870.011719 730.273762,869.62207 729.720051,869.62207 L723.91634,869.62207 C722.870442,869.62207 722.265461,870.227051 722.265461,871.272949 L722.265461,877.066406 C722.265461,877.609863 722.65511,878.02002 723.208821,878.02002 C723.752278,878.02002 724.141926,877.620117 724.141926,877.066406 L724.141926,876.092285 L723.926594,872.523926 L726.633625,875.364258 L729.853352,878.604492 C730.027668,878.789062 730.253254,878.881348 730.509602,878.881348 Z" id="FullScreen-Exit"></path>
        </g>
    </g>
</svg>