<?xml version="1.0" encoding="UTF-8"?>
<svg width="12px" height="12px" viewBox="0 0 12 12" version="1.1" xmlns="http://www.w3.org/2000/svg" xmlns:xlink="http://www.w3.org/1999/xlink">
    <!-- Generator: Sketch 64 (93537) - https://sketch.com -->
    <title>Maximise screen</title>
    <desc>Created with Sketch.</desc>
    <g id="Version-3.1-Documentation" stroke="none" stroke-width="1" fill="none" fill-rule="evenodd">
        <g id="Player-Components" transform="translate(-724.000000, -928.000000)" fill="#8C8C8C" fill-rule="nonzero">
            <path d="M733.692871,939.686035 C735.025879,939.686035 735.686035,939.025879 735.686035,937.718262 L735.686035,929.967773 C735.686035,928.660156 735.025879,928 733.692871,928 L725.993164,928 C724.666504,928 724,928.653809 724,929.967773 L724,937.718262 C724,939.032227 724.666504,939.686035 725.993164,939.686035 L733.692871,939.686035 Z M733.680176,938.664062 L726.005859,938.664062 C725.371094,938.664062 725.021973,938.327637 725.021973,937.66748 L725.021973,930.018555 C725.021973,929.358398 725.371094,929.021973 726.005859,929.021973 L733.680176,929.021973 C734.308594,929.021973 734.664062,929.358398 734.664062,930.018555 L734.664062,937.66748 C734.664062,938.327637 734.308594,938.664062 733.680176,938.664062 Z M731.839355,936.283691 C732.118652,936.283691 732.302734,936.099609 732.302734,935.813965 C732.302734,935.687012 732.239258,935.560059 732.150391,935.471191 L729.814453,933.135254 L728.824219,932.214844 L729.763672,932.316406 L730.918945,932.316406 C731.223633,932.316406 731.42041,932.125977 731.42041,931.84668 C731.42041,931.567383 731.22998,931.383301 730.931641,931.383301 L727.916504,931.383301 C727.592773,931.383301 727.389648,931.529297 727.389648,931.910156 L727.389648,934.899902 C727.389648,935.198242 727.57373,935.407715 727.853027,935.407715 C728.138672,935.407715 728.322754,935.217285 728.322754,934.912598 L728.322754,933.814453 L728.227539,932.824219 L729.141602,933.801758 L731.477539,936.137695 C731.566406,936.226562 731.687012,936.283691 731.839355,936.283691 Z" id="Maximise-screen"></path>
        </g>
    </g>
</svg>