<?xml version="1.0" encoding="UTF-8"?>
<svg width="17px" height="18px" viewBox="0 0 17 18" version="1.1" xmlns="http://www.w3.org/2000/svg" xmlns:xlink="http://www.w3.org/1999/xlink">
    <!-- Generator: Sketch 64 (93537) - https://sketch.com -->
    <title>Next</title>
    <desc>Created with Sketch.</desc>
    <g id="Version-3.1-Documentation" stroke="none" stroke-width="1" fill="none" fill-rule="evenodd">
        <g id="Player-Components" transform="translate(-816.000000, -860.000000)" fill="#F9F9F9" fill-rule="nonzero">
            <path d="M831.642903,877.07666 C832.124836,877.07666 832.514485,876.70752 832.514485,876.225586 L832.514485,860.998535 C832.514485,860.516602 832.124836,860.137207 831.642903,860.137207 C831.160969,860.137207 830.761067,860.516602 830.761067,860.998535 L830.761067,868.207031 C830.648274,867.786621 830.330403,867.407227 829.776692,867.079102 L819.327961,860.926758 C818.907551,860.680664 818.569172,860.547363 818.148762,860.547363 C817.338703,860.547363 816.6722,861.162598 816.6722,862.311035 L816.6722,874.902832 C816.6722,876.05127 817.338703,876.666504 818.148762,876.666504 C818.569172,876.666504 818.907551,876.533203 819.327961,876.287109 L829.776692,870.134766 C830.330403,869.806641 830.648274,869.427246 830.761067,869.006836 L830.761067,876.225586 C830.761067,876.70752 831.160969,877.07666 831.642903,877.07666 Z M818.599934,874.769531 C818.446125,874.769531 818.312825,874.666992 818.312825,874.461914 L818.312825,862.751953 C818.312825,862.546875 818.446125,862.444336 818.599934,862.444336 C818.661457,862.444336 818.743489,862.475098 818.846028,862.536621 L828.597492,868.319824 C828.741047,868.401855 828.812825,868.463379 828.812825,868.606934 C828.812825,868.740234 828.730793,868.812012 828.597492,868.894043 L818.846028,874.677246 C818.743489,874.73877 818.661457,874.769531 818.599934,874.769531 Z" id="Next"></path>
        </g>
    </g>
</svg>