<?xml version="1.0" encoding="UTF-8"?>
<svg width="44px" height="58px" viewBox="0 0 44 58" version="1.1" xmlns="http://www.w3.org/2000/svg" xmlns:xlink="http://www.w3.org/1999/xlink">
    <!-- Generator: Sketch 64 (93537) - https://sketch.com -->
    <title>Pause</title>
    <desc>Created with Sketch.</desc>
    <g id="Version-3.1-Documentation" stroke="none" stroke-width="1" fill="none" fill-rule="evenodd" fill-opacity="0.8">
        <g id="Player-Components" transform="translate(-375.000000, -720.000000)" fill="#F9F9F9" fill-rule="nonzero">
            <path d="M388.660156,777.269531 C391.71875,777.269531 393.335938,775.652344 393.335938,772.558594 L393.335938,724.675781 C393.335938,721.476562 391.71875,720 388.660156,720 L380.644531,720 C377.585938,720 375.96875,721.617188 375.96875,724.675781 L375.96875,772.558594 C375.96875,775.652344 377.585938,777.269531 380.644531,777.269531 L388.660156,777.269531 Z M414.183594,777.269531 C417.277344,777.269531 418.859375,775.652344 418.859375,772.558594 L418.859375,724.675781 C418.859375,721.476562 417.277344,720 414.183594,720 L406.203125,720 C403.109375,720 401.492188,721.617188 401.492188,724.675781 L401.492188,772.558594 C401.492188,775.652344 403.109375,777.269531 406.203125,777.269531 L414.183594,777.269531 Z" id="Pause"></path>
        </g>
    </g>
</svg>