<?xml version="1.0" encoding="UTF-8"?>
<svg width="23px" height="19px" viewBox="0 0 23 19" version="1.1" xmlns="http://www.w3.org/2000/svg" xmlns:xlink="http://www.w3.org/1999/xlink">
    <!-- Generator: Sketch 64 (93537) - https://sketch.com -->
    <title>Repeat</title>
    <desc>Created with Sketch.</desc>
    <g id="Version-3.1-Documentation" stroke="none" stroke-width="1" fill="none" fill-rule="evenodd">
        <g id="Player-Components" transform="translate(-918.000000, -859.000000)" fill="#F9F9F9" fill-rule="nonzero">
            <path d="M919.237629,868.996582 C919.863117,868.996582 920.365559,868.494141 920.365559,867.868652 L920.365559,867.191895 C920.365559,865.561523 921.493489,864.484863 923.175129,864.484863 L930.906575,864.484863 L930.906575,866.62793 C930.906575,867.181641 931.265461,867.530273 931.829426,867.530273 C932.07552,867.530273 932.331867,867.437988 932.526692,867.273926 L936.402668,864.074707 C936.864094,863.705566 936.85384,863.090332 936.402668,862.700684 L932.526692,859.480957 C932.331867,859.327148 932.07552,859.224609 931.829426,859.224609 C931.265461,859.224609 930.906575,859.583496 930.906575,860.137207 L930.906575,862.259766 L923.390461,862.259766 C920.160481,862.259766 918.1097,864.115723 918.1097,867.027832 L918.1097,867.868652 C918.1097,868.494141 918.612141,868.996582 919.237629,868.996582 Z M926.794758,878.009766 C927.368977,878.009766 927.71761,877.661133 927.71761,877.107422 L927.71761,874.964355 L935.233723,874.964355 C938.463703,874.964355 940.514485,873.098145 940.514485,870.196289 L940.514485,869.355469 C940.514485,868.719727 940.012043,868.217285 939.386555,868.217285 C938.761067,868.217285 938.258625,868.719727 938.258625,869.355469 L938.258625,870.032227 C938.258625,871.652344 937.130696,872.739258 935.449055,872.739258 L927.71761,872.739258 L927.71761,870.616699 C927.71761,870.062988 927.368977,869.714355 926.794758,869.714355 C926.548664,869.714355 926.292317,869.806641 926.107746,869.960449 L922.23177,873.159668 C921.770344,873.539062 921.76009,874.144043 922.23177,874.533691 L926.107746,877.753418 C926.292317,877.91748 926.548664,878.009766 926.794758,878.009766 Z" id="Repeat"></path>
        </g>
    </g>
</svg>