<?xml version="1.0" encoding="UTF-8"?>
<svg width="25px" height="19px" viewBox="0 0 25 19" version="1.1" xmlns="http://www.w3.org/2000/svg" xmlns:xlink="http://www.w3.org/1999/xlink">
    <!-- Generator: Sketch 64 (93537) - https://sketch.com -->
    <title>Screen cast</title>
    <desc>Created with Sketch.</desc>
    <g id="Version-3.1-Documentation" stroke="none" stroke-width="1" fill="none" fill-rule="evenodd">
        <g id="Player-Components" transform="translate(-388.000000, -861.000000)" fill="#F9F9F9" fill-rule="nonzero">
            <path d="M409.820527,861 C411.873602,861 412.926098,862.000583 412.996243,863.983171 L413,864.199348 L413,876.800652 C413,878.853359 412.0183,879.924726 410.036671,879.996172 L409.820527,880 L403.110572,880 L403.110572,878.338 L409.800275,878.338403 C410.747029,878.338403 411.305412,877.850506 411.364533,876.892099 L411.36976,876.718088 L411.36976,864.281912 C411.36976,863.268212 410.863975,862.723998 409.963295,862.666658 L409.800275,862.661597 L392.323297,862.661597 C391.36698,862.661597 390.817097,863.149494 390.758951,864.107901 L390.753811,864.281912 L390.753572,865.857 L389.123572,865.857 L389.123572,864.199348 C389.123572,862.136676 390.114712,861.074587 392.087877,861.003792 L392.303045,861 L409.820527,861 Z M389.09591,870.972238 C391.059789,870.773364 393.477348,871.69937 395.223709,873.445731 C396.970069,875.192091 397.908505,877.609651 397.690987,879.567314 C397.672342,879.722685 397.560476,879.822121 397.405106,879.828336 L397.405106,879.828336 L395.758182,879.809692 C395.559308,879.809692 395.447442,879.697825 395.459871,879.474092 C395.515805,877.926606 394.86325,876.155386 393.682437,874.987003 C392.514054,873.80619 390.749049,873.14742 389.195347,873.209568 C388.977829,873.215783 388.853533,873.103917 388.847318,872.911258 L388.847318,872.911258 L388.841103,871.264334 C388.841103,871.102749 388.94054,870.990883 389.09591,870.972238 Z M389.064836,875.950298 C389.841687,875.832216 390.978997,876.174031 391.737203,876.932237 C392.489194,877.684228 392.824794,878.815323 392.719142,879.592174 C392.694283,879.766188 392.594846,879.828336 392.451905,879.822121 L392.451905,879.822121 L389.673887,879.766188 C389.269925,879.759973 389.126984,879.728899 389.033762,879.635677 C388.934325,879.53624 388.897037,879.399515 388.897037,878.989338 L388.897037,878.989338 L388.847318,876.217534 C388.834889,876.068379 388.909466,875.981372 389.064836,875.950298 Z M389.145629,866.174408 C392.228172,865.851238 396.068922,867.305503 398.71643,869.95301 C401.357722,872.594302 402.793342,876.441267 402.488817,879.517596 C402.476387,879.679181 402.358306,879.797262 402.184291,879.797262 L402.184291,879.797262 L400.742456,879.797262 C400.556012,879.797262 400.425501,879.666751 400.431716,879.486522 C400.556012,876.503415 399.368984,873.700538 397.168943,871.500497 C394.968902,869.300455 392.172239,868.169361 389.189132,868.231509 C388.996473,868.250153 388.859748,868.113428 388.865963,867.933198 L388.865963,867.933198 L388.865963,866.478934 C388.878392,866.317349 388.984044,866.186838 389.145629,866.174408 Z" id="Screen-cast"></path>
        </g>
    </g>
</svg>