<?xml version="1.0" encoding="UTF-8"?>
<svg width="22px" height="22px" viewBox="0 0 22 22" version="1.1" xmlns="http://www.w3.org/2000/svg" xmlns:xlink="http://www.w3.org/1999/xlink">
    <!-- Generator: Sketch 64 (93537) - https://sketch.com -->
    <title>Settings</title>
    <desc>Created with Sketch.</desc>
    <g id="Version-3.1-Documentation" stroke="none" stroke-width="1" fill="none" fill-rule="evenodd" stroke-linejoin="round">
        <g id="Player-Components" transform="translate(-181.000000, -859.000000)" stroke="#F9F9F9" stroke-width="1.5">
            <path d="M194.397769,860.196527 L195.281822,863.21697 C195.549416,863.33926 195.80595,863.476057 196.054676,863.627447 L196.054676,863.627447 L198.82991,862.88797 L201.930023,867.142079 L199.664594,869.393744 C199.683499,869.591252 199.69302,869.793333 199.69302,870 L199.69302,870 L201.729314,872.186382 L199.49986,876.925924 L196.365475,876.164113 C196.127102,876.324716 195.878818,876.474333 195.620723,876.60997 L195.620723,876.60997 L194.891108,879.316501 L189.602231,879.803473 L188.718178,876.78303 C188.450584,876.66074 188.19405,876.523943 187.945324,876.372553 L187.945324,876.372553 L185.17009,877.11203 L182.069977,872.857921 L184.335728,870.605935 C184.316609,870.404894 184.30698,870.200141 184.30698,870 L184.30698,870 L182.270091,867.814884 L184.50014,863.074076 L187.634525,863.835887 C187.872898,863.675284 188.121182,863.525667 188.379277,863.39003 L188.379277,863.39003 L189.108892,860.683499 L194.397769,860.196527 Z M192,866.75 C191.10625,866.75 190.294228,867.116432 189.70533,867.70533 C189.116432,868.294228 188.75,869.10625 188.75,870 C188.75,870.89375 189.116432,871.705772 189.70533,872.29467 C190.294228,872.883568 191.10625,873.25 192,873.25 C192.89375,873.25 193.705772,872.883568 194.29467,872.29467 C194.883568,871.705772 195.25,870.89375 195.25,870 C195.25,869.10625 194.883568,868.294228 194.29467,867.70533 C193.705772,867.116432 192.89375,866.75 192,866.75 Z" id="Settings"></path>
        </g>
    </g>
</svg>