<?xml version="1.0" encoding="UTF-8"?>
<svg width="13px" height="12px" viewBox="0 0 13 12" version="1.1" xmlns="http://www.w3.org/2000/svg" xmlns:xlink="http://www.w3.org/1999/xlink">
    <!-- Generator: Sketch 64 (93537) - https://sketch.com -->
    <title>Callout / Audio</title>
    <desc>Created with Sketch.</desc>
    <g id="Version-3.1-Documentation" stroke="none" stroke-width="1" fill="none" fill-rule="evenodd">
        <g id="Player-Components" transform="translate(-186.000000, -928.000000)" fill="#FFFFFF" fill-rule="nonzero">
            <path d="M193.115723,939.641602 C193.547363,939.641602 193.858398,939.324219 193.858398,938.898926 L193.858398,928.774414 C193.858398,928.349121 193.547363,928 193.103027,928 C192.791992,928 192.58252,928.133301 192.246094,928.450684 L189.434082,931.097656 C189.389648,931.135742 189.338867,931.154785 189.275391,931.154785 L187.377441,931.154785 C186.482422,931.154785 186,931.643555 186,932.602051 L186,935.058594 C186,936.010742 186.482422,936.499512 187.377441,936.499512 L189.275391,936.499512 C189.338867,936.499512 189.389648,936.518555 189.434082,936.556641 L192.246094,939.229004 C192.550781,939.514648 192.804688,939.641602 193.115723,939.641602 Z M197.305176,936.455078 C197.800293,935.788574 198.098633,934.811035 198.098633,933.814453 C198.098633,932.817871 197.800293,931.84668 197.305176,931.173828 C197.121094,930.919922 196.816406,930.875488 196.594238,931.021484 C196.321289,931.211914 196.283203,931.535645 196.486328,931.808594 C196.854492,932.303711 197.07666,933.059082 197.07666,933.814453 C197.07666,934.569824 196.841797,935.325195 196.47998,935.82666 C196.289551,936.099609 196.321289,936.410645 196.594238,936.601074 C196.810059,936.753418 197.121094,936.708984 197.305176,936.455078 Z" id="Callout-/-Audio"></path>
        </g>
    </g>
</svg>