<?xml version="1.0" encoding="UTF-8"?>
<svg width="14px" height="14px" viewBox="0 0 14 14" version="1.1" xmlns="http://www.w3.org/2000/svg" xmlns:xlink="http://www.w3.org/1999/xlink">
    <!-- Generator: Sketch 64 (93537) - https://sketch.com -->
    <title>Callout / Caption</title>
    <desc>Created with Sketch.</desc>
    <g id="Version-3.1-Documentation" stroke="none" stroke-width="1" fill="none" fill-rule="evenodd">
        <g id="Player-Components" transform="translate(-288.000000, -927.000000)" fill="#FFFFFF" fill-rule="nonzero">
            <path d="M291.770508,940.171387 C292.018066,940.171387 292.202148,940.044434 292.500488,939.765137 L294.791992,937.67041 L299.083008,937.676758 C300.974609,937.683105 301.990234,936.629395 301.990234,934.769531 L301.990234,929.907227 C301.990234,928.047363 300.974609,927 299.083008,927 L290.907227,927 C289.015625,927 288,928.041016 288,929.907227 L288,934.769531 C288,936.635742 289.015625,937.676758 290.907227,937.67041 L291.205566,937.67041 L291.205566,939.517578 C291.205566,939.911133 291.408691,940.171387 291.770508,940.171387 Z M293.433594,933.163574 L290.615234,933.163574 C290.399414,933.163574 290.215332,932.98584 290.215332,932.750977 C290.215332,932.535156 290.399414,932.351074 290.615234,932.351074 L293.433594,932.351074 C293.655762,932.351074 293.833496,932.535156 293.833496,932.750977 C293.833496,932.98584 293.655762,933.163574 293.433594,933.163574 Z M299.463867,933.163574 L295.007812,933.163574 C294.785645,933.163574 294.60791,932.98584 294.60791,932.750977 C294.60791,932.535156 294.785645,932.351074 295.007812,932.351074 L299.463867,932.351074 C299.679688,932.351074 299.86377,932.535156 299.86377,932.750977 C299.86377,932.98584 299.679688,933.163574 299.463867,933.163574 Z M291.73877,934.991699 L290.615234,934.991699 C290.399414,934.991699 290.215332,934.820312 290.215332,934.591797 C290.215332,934.363281 290.399414,934.179199 290.615234,934.179199 L291.73877,934.179199 C291.960938,934.179199 292.14502,934.363281 292.14502,934.591797 C292.14502,934.820312 291.960938,934.991699 291.73877,934.991699 Z M296.683594,934.991699 L293.312988,934.991699 C293.084473,934.991699 292.913086,934.820312 292.913086,934.591797 C292.913086,934.363281 293.084473,934.179199 293.312988,934.179199 L296.683594,934.179199 C296.905762,934.179199 297.083496,934.363281 297.083496,934.591797 C297.083496,934.820312 296.905762,934.991699 296.683594,934.991699 Z M299.463867,934.991699 L298.257812,934.991699 C298.029297,934.991699 297.851562,934.820312 297.851562,934.591797 C297.851562,934.363281 298.029297,934.179199 298.257812,934.179199 L299.463867,934.179199 C299.679688,934.179199 299.86377,934.363281 299.86377,934.591797 C299.86377,934.820312 299.679688,934.991699 299.463867,934.991699 Z" id="Callout-/-Caption"></path>
        </g>
    </g>
</svg>