<?xml version="1.0" encoding="UTF-8"?>
<svg width="24px" height="22px" viewBox="0 0 24 22" version="1.1" xmlns="http://www.w3.org/2000/svg" xmlns:xlink="http://www.w3.org/1999/xlink">
    <title>Caption</title>
    <g id="Version-3.1-Documentation" stroke="none" stroke-width="1" fill="none" fill-rule="evenodd">
        <g id="Player-Components" transform="translate(-283.000000, -858.000000)" fill="#F9F9F9" fill-rule="nonzero">
            <path d="M290.221028,879.865723 C290.723469,879.865723 291.072102,879.599121 291.69759,879.04541 L295.235188,875.897461 L301.818196,875.897461 C304.87386,875.897461 306.514485,874.205566 306.514485,871.201172 L306.514485,863.34668 C306.514485,860.342285 304.87386,858.650391 301.818196,858.650391 L288.611164,858.650391 C285.5555,858.650391 283.914875,860.332031 283.914875,863.34668 L283.914875,871.201172 C283.914875,874.21582 285.5555,875.897461 288.611164,875.897461 L289.103352,875.897461 L289.103352,878.563477 C289.103352,879.353027 289.503254,879.865723 290.221028,879.865723 Z M290.641438,877.989258 L290.641438,875.015625 C290.641438,874.461914 290.426106,874.246582 289.872395,874.246582 L288.611164,874.246582 C286.539875,874.246582 285.565754,873.19043 285.565754,871.190918 L285.565754,863.34668 C285.565754,861.347168 286.539875,860.30127 288.611164,860.30127 L301.818196,860.30127 C303.879231,860.30127 304.863606,861.347168 304.863606,863.34668 L304.863606,871.190918 C304.863606,873.19043 303.879231,874.246582 301.818196,874.246582 L295.173664,874.246582 C294.599446,874.246582 294.312336,874.328613 293.922688,874.728516 L290.641438,877.989258 Z M293.020344,868.678711 C293.348469,868.678711 293.615071,868.422363 293.615071,868.083984 C293.615071,867.766113 293.348469,867.489258 293.020344,867.489258 L288.795735,867.489258 C288.46761,867.489258 288.211262,867.766113 288.211262,868.083984 C288.211262,868.422363 288.46761,868.678711 288.795735,868.678711 L293.020344,868.678711 Z M301.77718,868.678711 C302.105305,868.678711 302.361653,868.422363 302.361653,868.083984 C302.361653,867.766113 302.105305,867.489258 301.77718,867.489258 L295.142903,867.489258 C294.814778,867.489258 294.548176,867.766113 294.548176,868.083984 C294.548176,868.422363 294.814778,868.678711 295.142903,868.678711 L301.77718,868.678711 Z M290.538899,871.365234 C290.867024,871.365234 291.123371,871.108887 291.123371,870.780762 C291.123371,870.442383 290.867024,870.175781 290.538899,870.175781 L288.795735,870.175781 C288.46761,870.175781 288.211262,870.442383 288.211262,870.780762 C288.211262,871.108887 288.46761,871.365234 288.795735,871.365234 L290.538899,871.365234 Z M297.798664,871.365234 C298.126789,871.365234 298.383137,871.108887 298.383137,870.780762 C298.383137,870.442383 298.126789,870.175781 297.798664,870.175781 L292.651203,870.175781 C292.323078,870.175781 292.066731,870.442383 292.066731,870.780762 C292.066731,871.108887 292.323078,871.365234 292.651203,871.365234 L297.798664,871.365234 Z M301.77718,871.365234 C302.105305,871.365234 302.361653,871.108887 302.361653,870.780762 C302.361653,870.442383 302.105305,870.175781 301.77718,870.175781 L299.910969,870.175781 C299.582844,870.175781 299.326496,870.442383 299.326496,870.780762 C299.326496,871.108887 299.582844,871.365234 299.910969,871.365234 L301.77718,871.365234 Z" id="Caption"></path>
        </g>
    </g>
</svg>