<?xml version="1.0" encoding="UTF-8"?>
<svg width="20px" height="20px" viewBox="0 0 20 20" version="1.1" xmlns="http://www.w3.org/2000/svg" xmlns:xlink="http://www.w3.org/1999/xlink">
    <!-- Generator: Sketch 64 (93537) - https://sketch.com -->
    <title>Voulme / Level 0% - mute</title>
    <desc>Created with Sketch.</desc>
    <g id="Version-3.1-Documentation" stroke="none" stroke-width="1" fill="none" fill-rule="evenodd">
        <g id="Player-Components" transform="translate(-79.000000, -991.000000)" fill="#F9F9F9" fill-rule="nonzero">
            <path d="M94.0691722,1003.5498 L94.0691722,992.455078 C94.0691722,991.768066 93.5564769,991.204102 92.8387034,991.204102 C92.336262,991.204102 92.008137,991.439941 91.4544261,991.932129 L86.7171214,996.146484 L87.8655589,997.294922 L92.0901683,993.449707 C92.1414378,993.408691 92.2029612,993.367676 92.2747386,993.367676 C92.3567698,993.367676 92.4182933,993.429199 92.4182933,993.51123 L92.4182933,1001.89893 L94.0691722,1003.5498 Z M98.2732737,1010.72754 C98.5808909,1010.40967 98.5911448,1009.91748 98.2732737,1009.60986 L80.7185862,992.055176 C80.410969,991.747559 79.8982737,991.747559 79.5906565,992.055176 C79.2932933,992.352539 79.2932933,992.875488 79.5906565,993.172852 L97.155598,1010.72754 C97.473469,1011.03516 97.9759105,1011.03516 98.2732737,1010.72754 Z M92.8592112,1010.00977 C93.320637,1010.00977 93.7102855,1009.77393 93.9461253,1009.3125 L92.7259105,1008.15381 L87.4964183,1003.61133 C87.2708323,1003.4165 87.1477855,1003.38574 86.8606761,1003.38574 L83.4051097,1003.38574 C83.0052073,1003.38574 82.820637,1003.20117 82.820637,1002.79102 L82.820637,998.310059 L81.5901683,996.997559 C81.3030589,997.407715 81.1697581,997.940918 81.1697581,998.607422 L81.1697581,1002.65771 C81.1697581,1004.20605 81.8875315,1004.93408 83.3333323,1004.93408 L86.3889964,1004.93408 C86.4915355,1004.93408 86.5735667,1004.96484 86.645344,1005.03662 L91.4544261,1009.34326 C91.9568675,1009.79443 92.3567698,1010.00977 92.8592112,1010.00977 Z" id="Voulme-/-Level-0%---mute"></path>
        </g>
    </g>
</svg>