<?xml version="1.0" encoding="UTF-8"?>
<svg width="26px" height="19px" viewBox="0 0 26 19" version="1.1" xmlns="http://www.w3.org/2000/svg" xmlns:xlink="http://www.w3.org/1999/xlink">
    <!-- Generator: Sketch 64 (93537) - https://sketch.com -->
    <title>Voulme / Level 80-100%</title>
    <desc>Created with Sketch.</desc>
    <g id="Version-3.1-Documentation" stroke="none" stroke-width="1" fill="none" fill-rule="evenodd">
        <g id="Player-Components" transform="translate(-76.000000, -859.000000)" fill="#F9F9F9" fill-rule="nonzero">
            <path d="M88.3738597,878.009766 C89.0711253,878.009766 89.5735667,877.49707 89.5735667,876.810059 L89.5735667,860.455078 C89.5735667,859.768066 89.0711253,859.204102 88.3533519,859.204102 C87.8509105,859.204102 87.5227855,859.439941 86.9690745,859.932129 L82.1497386,864.208008 C82.0882151,864.269531 81.99593,864.300293 81.8933909,864.300293 L78.8479808,864.300293 C77.3919261,864.300293 76.6741526,865.02832 76.6741526,866.57666 L76.6741526,870.657715 C76.6741526,872.206055 77.3919261,872.934082 78.8479808,872.934082 L81.8933909,872.934082 C81.99593,872.934082 82.0882151,872.964844 82.1497386,873.026367 L86.9690745,877.343262 C87.4715159,877.794434 87.8714183,878.009766 88.3738597,878.009766 Z M99.160969,875.620605 C100.514485,873.733887 101.304035,871.22168 101.304035,868.59668 C101.304035,865.961426 100.534992,863.438965 99.160969,861.5625 C98.8636058,861.162598 98.3816722,861.060059 97.9817698,861.32666 C97.5921214,861.593262 97.530598,862.095703 97.8382151,862.536621 C98.9558909,864.177246 99.6531565,866.330566 99.6531565,868.59668 C99.6531565,870.862793 98.9661448,873.036621 97.8382151,874.656738 C97.5408519,875.097656 97.5921214,875.600098 97.9817698,875.866699 C98.3816722,876.133301 98.8738597,876.030762 99.160969,875.620605 Z M87.7791331,875.846191 C87.7278636,875.846191 87.6663401,875.81543 87.6048167,875.753906 L83.0623362,871.662598 C82.8059886,871.437012 82.6111644,871.385742 82.3343089,871.385742 L78.9197581,871.385742 C78.5198558,871.385742 78.3250315,871.201172 78.3250315,870.791016 L78.3250315,866.443359 C78.3250315,866.043457 78.5198558,865.848633 78.9197581,865.848633 L82.3343089,865.848633 C82.6111644,865.848633 82.8059886,865.807617 83.0623362,865.571777 L87.6048167,861.449707 C87.6560862,861.408691 87.7176097,861.367676 87.7791331,861.367676 C87.8611644,861.367676 87.9226878,861.429199 87.9226878,861.51123 L87.9226878,875.692383 C87.9226878,875.784668 87.8714183,875.846191 87.7791331,875.846191 Z M95.0388987,872.862305 C95.8387034,871.785645 96.320637,870.206543 96.320637,868.59668 C96.320637,866.986816 95.8387034,865.417969 95.0388987,864.331055 C94.7415355,863.920898 94.249348,863.849121 93.8904612,864.084961 C93.4495433,864.392578 93.3880198,864.915527 93.7161448,865.356445 C94.3108714,866.15625 94.6697581,867.376465 94.6697581,868.59668 C94.6697581,869.816895 94.2903636,871.037109 93.7058909,871.847168 C93.3982737,872.288086 93.4495433,872.790527 93.8904612,873.098145 C94.239094,873.344238 94.7415355,873.272461 95.0388987,872.862305 Z" id="Voulme-/-Level-80-100%"></path>
        </g>
    </g>
</svg>