<?xml version="1.0" encoding="UTF-8"?>
<svg width="20px" height="19px" viewBox="0 0 20 19" version="1.1" xmlns="http://www.w3.org/2000/svg" xmlns:xlink="http://www.w3.org/1999/xlink">
    <!-- Generator: Sketch 64 (93537) - https://sketch.com -->
    <title>Voulme / Level 79-1%</title>
    <desc>Created with Sketch.</desc>
    <g id="Version-3.1-Documentation" stroke="none" stroke-width="1" fill="none" fill-rule="evenodd">
        <g id="Player-Components" transform="translate(-80.000000, -925.000000)" fill="#F9F9F9" fill-rule="nonzero">
            <path d="M91.699707,943.805664 C92.3969727,943.805664 92.8994141,943.292969 92.8994141,942.605957 L92.8994141,926.250977 C92.8994141,925.563965 92.3969727,925 91.6791992,925 C91.1767578,925 90.8486328,925.23584 90.2949219,925.728027 L85.4755859,930.003906 C85.4140625,930.06543 85.3217773,930.096191 85.2192383,930.096191 L82.1738281,930.096191 C80.7177734,930.096191 80,930.824219 80,932.372559 L80,936.453613 C80,938.001953 80.7177734,938.72998 82.1738281,938.72998 L85.2192383,938.72998 C85.3217773,938.72998 85.4140625,938.760742 85.4755859,938.822266 L90.2949219,943.13916 C90.7973633,943.590332 91.1972656,943.805664 91.699707,943.805664 Z M91.1049805,941.64209 C91.0537109,941.64209 90.9921875,941.611328 90.9306641,941.549805 L86.3881836,937.458496 C86.1318359,937.23291 85.9370117,937.181641 85.6601562,937.181641 L82.2456055,937.181641 C81.8457031,937.181641 81.6508789,936.99707 81.6508789,936.586914 L81.6508789,932.239258 C81.6508789,931.839355 81.8457031,931.644531 82.2456055,931.644531 L85.6601562,931.644531 C85.9370117,931.644531 86.1318359,931.603516 86.3881836,931.367676 L90.9306641,927.245605 C90.9819336,927.20459 91.043457,927.163574 91.1049805,927.163574 C91.1870117,927.163574 91.2485352,927.225098 91.2485352,927.307129 L91.2485352,941.488281 C91.2485352,941.580566 91.1972656,941.64209 91.1049805,941.64209 Z M98.3647461,938.658203 C99.1645508,937.581543 99.6464844,936.002441 99.6464844,934.392578 C99.6464844,932.782715 99.1645508,931.213867 98.3647461,930.126953 C98.0673828,929.716797 97.5751953,929.64502 97.2163086,929.880859 C96.7753906,930.188477 96.7138672,930.711426 97.0419922,931.152344 C97.6367188,931.952148 97.9956055,933.172363 97.9956055,934.392578 C97.9956055,935.612793 97.6162109,936.833008 97.0317383,937.643066 C96.7241211,938.083984 96.7753906,938.586426 97.2163086,938.894043 C97.5649414,939.140137 98.0673828,939.068359 98.3647461,938.658203 Z" id="Voulme-/-Level-79-1%"></path>
        </g>
    </g>
</svg>